<?xml version="1.0" encoding="utf-8"?>
<!-- Generator: Adobe Illustrator 27.4.0, SVG Export Plug-In . SVG Version: 6.00 Build 0)  -->
<svg version="1.1" id="Layer_1" xmlns="http://www.w3.org/2000/svg" xmlns:xlink="http://www.w3.org/1999/xlink" x="0px" y="0px"
	 viewBox="0 0 300 300" style="enable-background:new 0 0 300 300;" xml:space="preserve">
<style type="text/css">
	.st0{fill:#2B2B2B;}
	.st1{fill:#0ACF83;}
	.st2{fill:#A259FF;}
	.st3{fill:#F24E1E;}
	.st4{fill:#FF7262;}
	.st5{fill:#1ABCFE;}
</style>
<g id="Layer_2_00000168818164930453410140000007049033509922053554_">
	<g id="Layer_1-2">
		<rect y="0" class="st0" width="300" height="300"/>
		<path id="path0_fill" class="st1" d="M117,249.1c18.2,0,33-14.8,33-33V183h-33c-18.2,0-33,14.8-33,33S98.8,249.1,117,249.1
			L117,249.1z"/>
		<path id="path1_fill" class="st2" d="M83.9,150c0-18.2,14.8-33,33-33h33v66H117C98.8,183,84,168.3,83.9,150
			C83.9,150,83.9,150,83.9,150z"/>
		<path id="path1_fill-2" class="st3" d="M83.9,83.9c0-18.2,14.8-33,33-33h33V117H117c-18.2,0-33-14.7-33.1-32.9
			C83.9,84,83.9,84,83.9,83.9z"/>
		<path id="path2_fill" class="st4" d="M150,50.9h33c18.3,0,33.1,14.8,33.1,33.1S201.3,117,183,117h-33V50.9z"/>
		<path id="path3_fill" class="st5" d="M216.1,150c0,18.2-14.8,33-33,33s-33-14.8-33-33s14.8-33,33-33S216.1,131.8,216.1,150z"/>
	</g>
</g>
</svg>
