<?xml version="1.0" encoding="utf-8"?>
<!-- Generator: Adobe Illustrator 27.4.0, SVG Export Plug-In . SVG Version: 6.00 Build 0)  -->
<svg version="1.1" id="Layer_1" xmlns="http://www.w3.org/2000/svg" xmlns:xlink="http://www.w3.org/1999/xlink" x="0px" y="0px"
	 viewBox="0 0 300 300" style="enable-background:new 0 0 300 300;" xml:space="preserve">
<style type="text/css">
	.st0{fill:#4154FF;}
	.st1{fill:#FFFFFF;}
</style>
<g id="Layer_2_00000023977487084681059140000015755727525777257867_">
	<g id="Layer_1-2">
		<rect y="0" class="st0" width="300" height="300"/>
		<path class="st1" d="M213.4,121.3c0,0-17.9,56.3-19.4,60.9c-0.5-4.8-13.7-105.8-13.7-105.8c-30.5,0-46.8,21.8-55.5,44.7
			c0,0-21.8,56.4-23.6,61.2c-0.1-4.3-3.2-60.5-3.2-60.5c-1.8-28.1-27.6-45.2-48.4-45.2l25.2,153c32-0.1,49.2-21.8,58.3-44.7
			c0,0,19.2-49.8,20-52c0.1,2.1,13.8,96.7,13.8,96.7c32.1,0,49.4-20.3,58.7-42.5l45-110.5C238.8,76.6,222,98.2,213.4,121.3z"/>
	</g>
</g>
</svg>
